File Name

In Tranzit 2008 1080p BRRip H264.mp4

File Size
Format : MPEG-4
Format profile : Base Media
Codec ID : isom
File size : 3.73 GiB
Duration : 1h 53mn
Overall bit rate : 4 728 Kbps

Video
ID : 1
Format : AVC
Format/Info : Advanced Video Codec
Format profile : High@L4.1
Format settings, CABAC : Yes
Format settings, ReFrames : 3 frames
Codec ID : avc1
Codec ID/Info : Advanced Video Coding
Duration : 1h 52mn
Bit rate mode : Variable
Bit rate : 4 099 Kbps
Maximum bit rate : 21.2 Mbps
Width : 1 920 pixels
Height : 1 080 pixels
Display aspect ratio : 16:9
Frame rate mode : Constant
Frame rate : 23.976 fps
Resolution : 24 bits
Colorimetry : 4:2:0
Scan type : Progressive
Bits/(Pixel*Frame) : 0.082
Stream size : 3.22 GiB (86%)

Audio #1
ID : 2
Format : AAC
Format/Info : Advanced Audio Codec
Format version : Version 4
Format profile : LC
Format settings, SBR : No
Codec ID : 40
Duration : 1h 53mn
Bit rate mode : Variable
Bit rate : 192 Kbps
Maximum bit rate : 200 Kbps
Channel(s) : 2 channels
Channel positions : L R
Sampling rate : 48.0 KHz
Resolution : 16 bits
Stream size : 154 MiB (4%)

Audio #2
ID : 3
Format : AAC
Format/Info : Advanced Audio Codec
Format version : Version 4
Format profile : LC
Format settings, SBR : No
Codec ID : 40
Duration : 1h 53mn
Bit rate mode : Variable
Bit rate : 448 Kbps
Maximum bit rate : 466 Kbps
Channel(s) : 6 channels
Channel positions : Front: L C R, Rear: L R, LFE
Sampling rate : 48.0 KHz
Resolution : 16 bits
Stream size : 362 MiB (9%)

English SRT : ----

Language : English
 
http://www.imdb.com/title/tt0785012/

Release Date: 13 October 2009 (Netherlands)

Genre: Drama | Romance | War

Plot: In the chaotic aftermath of WWII, a group of German POWs are accidentally sent to a female-run Soviet prison camp. When the guards are given the task of weeding out the SS officers, they play a bitter game of cat and mouse with the prisoners. Each group slowly learns that situations are not what they seem; prejudices are sometimes unjustly held; and love can be found in even the harshest places.

Cast:
Phillip Azarov ... Ivan
Sergei Baryshev ... Russian Guard 1 (as Sergey Baryshev)
Aleksandr Bolshakov ... Captain (as Alexander Bolshakov)
Daniel Brühl ... Klaus
Katya Chunkova ... Nina
Ingeborga Dapkunaite ... Vera
Vera Farmiga ... Natalia
Andrey Fyodortsov ... Anton (as Andrey Fedortsov)
Natalya Fisson ... Tamara (as Natalia Fisson)
Guy Flanagan ... Hans
Jenny Galloway ... Liudmilla
Maksim Gudkov ... Schmidt (as Maxim Gudkov)
Patrick Kennedy ... Peter
Thomas Kretschmann ... Max
Oleg Kulikovich ... Muller